<?xml version="1.0" encoding="utf-8"?>
<!-- Generator: Adobe Illustrator 17.0.2, SVG Export Plug-In . SVG Version: 6.00 Build 0)  -->
<!DOCTYPE svg PUBLIC "-//W3C//DTD SVG 1.1//EN" "http://www.w3.org/Graphics/SVG/1.1/DTD/svg11.dtd">
<svg version="1.1" id="Layer_1" xmlns="http://www.w3.org/2000/svg" xmlns:xlink="http://www.w3.org/1999/xlink" x="0px" y="0px"
	 width="383.098px" height="347.711px" viewBox="-47.381 -8.785 383.098 347.711"
	 enable-background="new -47.381 -8.785 383.098 347.711" xml:space="preserve">
<g>
	<polygon fill="#B52424" stroke="#FF0000" stroke-width="12" stroke-linejoin="round" stroke-miterlimit="10" points="
		143.802,7.286 7.486,85.966 7.463,243.361 143.765,322.077 280.082,243.397 280.1,86 	"/>
	<line fill="none" stroke="#FF0000" stroke-width="7" stroke-miterlimit="10" x1="7.486" y1="85.966" x2="63.394" y2="118.255"/>
	<line fill="none" stroke="#FF0000" stroke-width="7" stroke-miterlimit="10" x1="143.802" y1="7.286" x2="143.794" y2="71.85"/>
	<line fill="none" stroke="#FF0000" stroke-width="7" stroke-miterlimit="10" x1="280.1" y1="86" x2="224.182" y2="118.275"/>
	
		<line fill="none" stroke="#FF0000" stroke-width="7" stroke-miterlimit="10" x1="224.172" y1="211.109" x2="280.082" y2="243.397"/>
	
		<line fill="none" stroke="#FF0000" stroke-width="7" stroke-miterlimit="10" x1="143.765" y1="322.077" x2="143.772" y2="257.514"/>
	<line fill="none" stroke="#FF0000" stroke-width="7" stroke-miterlimit="10" x1="7.463" y1="243.361" x2="63.381" y2="211.087"/>
	<polygon fill="#4D961E" points="143.699,71.85 63.299,118.255 63.285,211.087 143.677,257.514 224.076,211.109 224.087,118.275 	
		"/>
	<polygon fill="#4D961E" stroke="#67D329" stroke-width="9" stroke-linejoin="round" stroke-miterlimit="10" points="143.794,71.85 
		63.394,118.255 63.381,211.087 143.772,257.514 224.172,211.109 224.182,118.275 	"/>
	<g>
		<g>
			<polygon fill="#751A23" points="196.396,9.095 196.396,42.544 225.363,59.27 254.332,42.544 254.332,9.095 225.363,-7.63 			"/>
			<polygon fill="none" stroke="#FF0000" stroke-width="2" stroke-miterlimit="10" points="196.396,9.095 196.396,42.544 
				225.363,59.27 254.332,42.544 254.332,9.095 225.363,-7.63 			"/>
		</g>
		<g>
			<circle fill="#FFFFFF" cx="224.958" cy="26.224" r="5.611"/>
			<g>
				<g>
					<polygon fill="#FFFFFF" points="224.958,16.695 220.13,18.574 224.958,5.127 229.786,18.574 					"/>
				</g>
				<g>
					<polygon fill="#FFFFFF" points="234.486,26.224 232.608,21.396 246.055,26.224 232.608,31.051 					"/>
				</g>
				<g>
					<polygon fill="#FFFFFF" points="224.958,35.752 229.786,33.873 224.958,47.32 220.13,33.873 					"/>
				</g>
				<g>
					<polygon fill="#FFFFFF" points="215.43,26.224 217.308,31.051 203.861,26.224 217.308,21.396 					"/>
				</g>
			</g>
		</g>
	</g>
	<g>
		<g>
			<polygon fill="#751A23" points="34.003,9.095 34.003,42.544 62.971,59.27 91.94,42.544 91.94,9.095 62.971,-7.63 			"/>
			<polygon fill="none" stroke="#FF0000" stroke-width="2" stroke-miterlimit="10" points="34.003,9.095 34.003,42.544 
				62.971,59.27 91.94,42.544 91.94,9.095 62.971,-7.63 			"/>
		</g>
		<g>
			<path fill="#FFFFFF" d="M80.125,24.109c-0.044-0.458-0.089-0.887-0.117-1.142c-0.21-1.254-0.561-2.478-1.05-3.662l-2.002,0
				l-1.396,0v0l-20.949-0.002c0.423-1.923,1.028-3.669,1.774-5.163c1.654-3.313,4.004-5.387,6.612-5.401
				c-0.164,0.001-0.327,0.007-0.489,0.017c0.194-0.014,0.393-0.022,0.599-0.023c-2.286,0.007-4.506,0.458-6.597,1.342
				c-2.035,0.86-3.862,2.092-5.43,3.66c-1.569,1.568-2.8,3.395-3.661,5.43c-0.019,0.045-0.038,0.091-0.057,0.137
				c-0.489,1.184-0.84,2.408-1.05,3.662c-0.055,0.33-0.101,0.661-0.137,0.995c-0.005,0.05-0.01,0.1-0.015,0.151H80.125z"/>
			<path fill="#FFFFFF" d="M46.16,27.531c0.003,0.03,0.006,0.06,0.009,0.09c0.257,2.33,0.335,2.82,1.205,4.741l3.291,0l20.764,0.002
				c0,0.002-0.001,0.004-0.001,0.005c-0.43,1.941-1.045,3.702-1.804,5.204c-1.604,3.174-3.85,5.193-6.348,5.321
				c-0.039,0-0.079,0.001-0.118,0.001l0,0.003c-0.043,0.001-0.085,0.002-0.128,0.002v0.006c0,0,0,0,0,0
				c0.108,0,0.215-0.002,0.323-0.007c2.237-0.025,4.408-0.475,6.456-1.342c2.035-0.86,3.862-2.092,5.43-3.66
				c1.569-1.568,2.8-3.395,3.661-5.43c0.015-0.035,0.029-0.07,0.044-0.105c0.492-1.184,0.845-2.408,1.058-3.662
				c0.061-0.357,0.11-0.717,0.148-1.078c0.003-0.031,0.006-0.062,0.009-0.093H46.16z M63.648,42.883
				c0.64-0.049,1.811-0.271,2.996-0.574C65.683,42.638,64.68,42.835,63.648,42.883z"/>
		</g>
	</g>
	<g>
		<polygon fill="#751A23" points="195.584,287.597 195.584,321.047 224.551,337.772 253.52,321.047 253.52,287.597 224.551,270.873 
					"/>
		<polygon fill="none" stroke="#FF0000" stroke-width="2" stroke-miterlimit="10" points="195.584,287.597 195.584,321.047 
			224.551,337.772 253.52,321.047 253.52,287.597 224.551,270.873 		"/>
	</g>
	<g>
		<polygon fill="#751A23" points="33.191,286.785 33.191,320.235 62.159,336.96 91.128,320.235 91.128,286.785 62.159,270.061 		"/>
		<polygon fill="none" stroke="#FF0000" stroke-width="2" stroke-miterlimit="10" points="33.191,286.785 33.191,320.235 
			62.159,336.96 91.128,320.235 91.128,286.785 62.159,270.061 		"/>
	</g>
	<g>
		<g>
			<polygon fill="#751A23" points="276.78,146.316 276.78,179.766 305.748,196.491 334.717,179.766 334.717,146.316 
				305.748,129.592 			"/>
			<polygon fill="none" stroke="#FF0000" stroke-width="2" stroke-miterlimit="10" points="276.78,146.316 276.78,179.766 
				305.748,196.491 334.717,179.766 334.717,146.316 305.748,129.592 			"/>
		</g>
		<g>
			
				<rect x="294.171" y="157.777" transform="matrix(0.8646 -0.5025 0.5025 0.8646 -43.8824 172.0359)" fill="#FFFFFF" width="6.146" height="19.315"/>
			
				<rect x="310.11" y="148.512" transform="matrix(0.8646 -0.5025 0.5025 0.8646 -37.0685 178.7905)" fill="#FFFFFF" width="6.146" height="19.315"/>
			
				<rect x="299.947" y="161.047" transform="matrix(0.8646 -0.5025 0.5025 0.8646 -40.4754 175.4135)" fill="#FFFFFF" width="10.535" height="3.512"/>
			
				<rect x="289.737" y="164.377" transform="matrix(0.8646 -0.5025 0.5025 0.8646 -46.1535 169.7845)" fill="#FFFFFF" width="4.39" height="12.291"/>
			
				<rect x="316.302" y="148.937" transform="matrix(0.8646 -0.5025 0.5025 0.8646 -34.7974 181.0426)" fill="#FFFFFF" width="4.39" height="12.291"/>
		</g>
	</g>
	<g>
		<g>
			<polygon fill="#751A23" points="-46.381,146.316 -46.381,179.766 -17.413,196.491 11.556,179.766 11.556,146.316 
				-17.413,129.592 			"/>
			<polygon fill="none" stroke="#FF0000" stroke-width="2" stroke-miterlimit="10" points="-46.381,146.316 -46.381,179.766 
				-17.413,196.491 11.556,179.766 11.556,146.316 -17.413,129.592 			"/>
		</g>
		<g>
			<path fill="#FFFFFF" d="M-17.007,182.787c-2.244-1.136-7.255-3.789-8.387-4.921c-0.587-0.587-2.117-3.924-3.179-7.818
				c-1.171-4.29-1.29-7.487-0.319-8.552c0.967-1.06,1.884-1.553,2.887-1.553c1.142,0,2.324,0.636,3.576,1.31
				c1.452,0.781,2.953,1.589,4.672,1.589c0.251,0,0.503-0.018,0.75-0.054c0.247,0.035,0.499,0.054,0.75,0.054
				c0.001,0,0.001,0,0.001,0c1.718,0,3.219-0.808,4.67-1.589c1.252-0.673,2.434-1.31,3.576-1.31c1.003,0,1.92,0.494,2.886,1.553
				c0.972,1.065,0.853,4.262-0.317,8.552c-1.062,3.894-2.593,7.231-3.179,7.818C-9.752,178.999-14.763,181.652-17.007,182.787z"/>
			<path fill="#FFFFFF" d="M-37.104,161.799c-0.532-3.775-0.025-6.423,1.582-8.308c1.804-2.115,5.101-3.235,9.803-3.332l0.923,7.132
				c-0.507-0.122-0.992-0.183-1.467-0.183c-1.755,0-3.321,0.783-4.791,2.394c-0.775,0.849-1.209,2.118-1.296,3.781L-37.104,161.799z
				"/>
			<path fill="#FFFFFF" d="M-1.665,163.283c-0.087-1.663-0.522-2.932-1.297-3.781c-1.469-1.61-3.036-2.393-4.79-2.393
				c-0.475,0-0.96,0.06-1.467,0.183l0.923-7.132c4.702,0.097,7.998,1.217,9.803,3.332c1.607,1.884,2.114,4.533,1.582,8.308
				L-1.665,163.283z"/>
		</g>
	</g>
	<g>
		<g>
			<path fill="#FFFFFF" d="M88.796,158.976c1.823-0.024,3.3,0.444,4.428,1.404c1.128,0.96,1.692,2.184,1.692,3.672
				c0,0.625-0.108,1.26-0.324,1.908c-1.512,4.68-4.956,7.021-10.332,7.021H73.64l1.764-5.4H86.06c0.552,0,1.086-0.198,1.603-0.594
				c0.516-0.396,0.773-0.858,0.773-1.387c0-0.768-0.456-1.151-1.368-1.151h-3.132c-1.704,0-3.078-0.444-4.122-1.332
				c-1.044-0.888-1.565-2.028-1.565-3.42c0-0.239,0.012-0.479,0.035-0.72h10.512C88.796,158.977,88.796,158.976,88.796,158.976z
				 M78.968,156.78c1.584-3.6,4.655-5.4,9.216-5.4h11.16l-3.96,5.4H78.968z"/>
			<path fill="#FFFFFF" d="M97.58,156.78l3.995-5.4h18.685l-1.764,5.4H97.58z M111.564,158.976l-4.536,14.004h-6.244l4.536-14.004
				H111.564z"/>
			<path fill="#FFFFFF" d="M139.304,158.976c-0.696,1.224-1.692,2.292-2.988,3.204c0.6,0.768,0.9,1.668,0.9,2.7
				c0,0.576-0.097,1.152-0.288,1.729l-2.053,6.372h-6.24l2.275-6.95c0.052-0.144,0.077-0.287,0.077-0.432
				c0-0.767-0.455-1.15-1.366-1.15h-4.423l-2.763,8.532h-6.244l4.536-14.004L139.304,158.976L139.304,158.976z M119.216,156.78
				l3.995-5.4h11.341c1.655,0,2.993,0.438,4.014,1.314c1.02,0.876,1.53,1.986,1.53,3.33c0,0.24-0.013,0.492-0.036,0.756H119.216z"/>
			<path fill="#FFFFFF" d="M147.776,158.976l-4.514,14.004h-6.245l4.513-14.004H147.776z M142.244,156.78l1.793-5.4h6.246
				l-1.793,5.4H142.244z"/>
			<path fill="#FFFFFF" d="M162.049,158.976l-1.545,1.074l3.386,7.53h4.213l-3.995,5.4h-6.227l-3.383-8.705l-2.829,8.705h-6.246
				l4.551-14.004H162.049z M150.688,156.78l1.755-5.4h6.246l-1.747,5.377l8.065-5.377h8.308l-7.97,5.4H150.688z"/>
			<path fill="#FFFFFF" d="M190.603,158.976l-1.724,5.4h-12.428l-1.076,3.204h12.456l-1.765,5.4h-18.684l4.536-14.004
				L190.603,158.976L190.603,158.976z M170.407,156.78l3.995-5.4h18.685l-1.764,5.4H170.407z"/>
			<path fill="#FFFFFF" d="M212.131,158.976c-0.696,1.224-1.692,2.292-2.988,3.204c0.6,0.768,0.9,1.668,0.9,2.7
				c0,0.576-0.097,1.152-0.288,1.729l-2.053,6.372h-6.24l2.275-6.95c0.052-0.144,0.077-0.287,0.077-0.432
				c0-0.767-0.455-1.15-1.366-1.15h-4.423l-2.763,8.532h-6.244l4.536-14.004L212.131,158.976L212.131,158.976z M192.043,156.78
				l3.995-5.4h11.341c1.655,0,2.993,0.438,4.014,1.314c1.02,0.876,1.53,1.986,1.53,3.33c0,0.24-0.013,0.492-0.036,0.756H192.043z"/>
		</g>
	</g>
	<polygon fill="#FFFFFF" points="231.894,283.46 213.115,305.279 221.951,306.879 215.859,324.058 235.059,301.599 226.261,299.721 
			"/>
	<g>
		<path fill="#FFFFFF" d="M55.66,303.162c0.541-2.608,2.616-4.661,5.237-5.168v-10.689c-0.743,0.054-1.482,0.156-2.209,0.304
			c-1.11,0.227-2.202,0.566-3.246,1.008c-1.023,0.433-2.01,0.968-2.933,1.592c-0.912,0.616-1.77,1.324-2.55,2.104
			c-0.779,0.779-1.487,1.637-2.104,2.55c-0.623,0.923-1.159,1.909-1.592,2.933c-0.441,1.044-0.78,2.136-1.008,3.246
			c-0.143,0.698-0.242,1.408-0.298,2.122H55.66z"/>
		<path fill="#FFFFFF" d="M63.594,298.029c2.539,0.562,4.536,2.581,5.065,5.132h10.7c-0.056-0.714-0.155-1.424-0.298-2.122
			c-0.227-1.11-0.566-2.202-1.008-3.246c-0.433-1.023-0.968-2.01-1.592-2.933c-0.616-0.912-1.324-1.77-2.104-2.55
			c-0.779-0.779-1.637-1.487-2.55-2.104c-0.923-0.623-1.909-1.159-2.933-1.592c-1.043-0.441-2.135-0.78-3.246-1.008
			c-0.67-0.137-1.351-0.234-2.036-0.291V298.029z"/>
		<path fill="#FFFFFF" d="M60.897,311.027c-2.62-0.507-4.696-2.56-5.237-5.168h-10.7c0.056,0.714,0.155,1.424,0.298,2.123
			c0.227,1.11,0.566,2.202,1.008,3.246c0.433,1.023,0.968,2.01,1.592,2.933c0.616,0.912,1.324,1.77,2.104,2.55
			c0.779,0.779,1.637,1.487,2.55,2.104c0.923,0.623,1.909,1.159,2.933,1.592c1.044,0.441,2.136,0.78,3.246,1.008
			c0.726,0.149,1.465,0.25,2.209,0.304V311.027z"/>
		<path fill="#FFFFFF" d="M68.659,305.859c-0.529,2.551-2.526,4.571-5.065,5.132v10.711c0.685-0.057,1.366-0.154,2.036-0.291
			c1.11-0.227,2.202-0.566,3.246-1.008c1.023-0.433,2.01-0.968,2.933-1.592c0.912-0.616,1.77-1.324,2.55-2.104
			c0.779-0.779,1.487-1.637,2.104-2.55c0.623-0.923,1.159-1.909,1.592-2.933c0.441-1.043,0.78-2.135,1.008-3.246
			c0.143-0.698,0.242-1.408,0.298-2.123H68.659z"/>
	</g>
</g>
</svg>
