<?xml version="1.0" encoding="utf-8"?>
<!-- Generator: Adobe Illustrator 17.0.2, SVG Export Plug-In . SVG Version: 6.00 Build 0)  -->
<!DOCTYPE svg PUBLIC "-//W3C//DTD SVG 1.1//EN" "http://www.w3.org/Graphics/SVG/1.1/DTD/svg11.dtd">
<svg version="1.1" id="Layer_1" xmlns="http://www.w3.org/2000/svg" xmlns:xlink="http://www.w3.org/1999/xlink" x="0px" y="0px"
	 width="383.098px" height="347.711px" viewBox="-47.381 -8.785 383.098 347.711"
	 enable-background="new -47.381 -8.785 383.098 347.711" xml:space="preserve">
<g>
	<polygon fill="#B52424" stroke="#FF0000" stroke-width="12" stroke-linejoin="round" stroke-miterlimit="10" points="
		143.802,7.286 7.486,85.966 7.463,243.361 143.765,322.077 280.082,243.397 280.1,86 	"/>
	<line fill="none" stroke="#FF0000" stroke-width="7" stroke-miterlimit="10" x1="7.486" y1="85.966" x2="63.394" y2="118.255"/>
	<line fill="none" stroke="#FF0000" stroke-width="7" stroke-miterlimit="10" x1="143.802" y1="7.286" x2="143.794" y2="71.85"/>
	<line fill="none" stroke="#FF0000" stroke-width="7" stroke-miterlimit="10" x1="280.1" y1="86" x2="224.182" y2="118.275"/>
	
		<line fill="none" stroke="#FF0000" stroke-width="7" stroke-miterlimit="10" x1="224.172" y1="211.109" x2="280.082" y2="243.397"/>
	
		<line fill="none" stroke="#FF0000" stroke-width="7" stroke-miterlimit="10" x1="143.765" y1="322.077" x2="143.772" y2="257.514"/>
	<line fill="none" stroke="#FF0000" stroke-width="7" stroke-miterlimit="10" x1="7.463" y1="243.361" x2="63.381" y2="211.087"/>
	<polygon fill="#4D961E" points="143.699,71.85 63.299,118.255 63.285,211.087 143.677,257.514 224.076,211.109 224.087,118.275 	
		"/>
	<polygon fill="#005F75" stroke="#00BAE5" stroke-width="9" stroke-linejoin="round" stroke-miterlimit="10" points="143.794,71.85 
		63.394,118.255 63.381,211.087 143.772,257.514 224.172,211.109 224.182,118.275 	"/>
	<g>
		<g>
			<polygon fill="#751A23" points="196.396,9.095 196.396,42.544 225.363,59.27 254.332,42.544 254.332,9.095 225.363,-7.63 			"/>
			<polygon fill="none" stroke="#FF0000" stroke-width="2" stroke-miterlimit="10" points="196.396,9.095 196.396,42.544 
				225.363,59.27 254.332,42.544 254.332,9.095 225.363,-7.63 			"/>
		</g>
		<g>
			<circle fill="#FFFFFF" cx="224.958" cy="26.224" r="5.611"/>
			<g>
				<g>
					<polygon fill="#FFFFFF" points="224.958,16.695 220.13,18.574 224.958,5.127 229.786,18.574 					"/>
				</g>
				<g>
					<polygon fill="#FFFFFF" points="234.486,26.224 232.608,21.396 246.055,26.224 232.608,31.051 					"/>
				</g>
				<g>
					<polygon fill="#FFFFFF" points="224.958,35.752 229.786,33.873 224.958,47.32 220.13,33.873 					"/>
				</g>
				<g>
					<polygon fill="#FFFFFF" points="215.43,26.224 217.308,31.051 203.861,26.224 217.308,21.396 					"/>
				</g>
			</g>
		</g>
	</g>
	<g>
		<polygon fill="#751A23" points="34.003,9.095 34.003,42.544 62.971,59.27 91.94,42.544 91.94,9.095 62.971,-7.63 		"/>
		<polygon fill="none" stroke="#FF0000" stroke-width="2" stroke-miterlimit="10" points="34.003,9.095 34.003,42.544 62.971,59.27 
			91.94,42.544 91.94,9.095 62.971,-7.63 		"/>
	</g>
	<g>
		<polygon fill="#751A23" points="195.584,287.597 195.584,321.047 224.551,337.772 253.52,321.047 253.52,287.597 224.551,270.873 
					"/>
		<polygon fill="none" stroke="#FF0000" stroke-width="2" stroke-miterlimit="10" points="195.584,287.597 195.584,321.047 
			224.551,337.772 253.52,321.047 253.52,287.597 224.551,270.873 		"/>
	</g>
	<g>
		<polygon fill="#751A23" points="33.191,286.785 33.191,320.235 62.159,336.96 91.128,320.235 91.128,286.785 62.159,270.061 		"/>
		<polygon fill="none" stroke="#FF0000" stroke-width="2" stroke-miterlimit="10" points="33.191,286.785 33.191,320.235 
			62.159,336.96 91.128,320.235 91.128,286.785 62.159,270.061 		"/>
	</g>
	<polygon fill="#FFFFFF" points="231.894,283.46 213.115,305.279 221.951,306.879 215.859,324.058 235.059,301.599 226.261,299.721 
			"/>
	<g>
		<g>
			<polygon fill="#751A23" points="276.78,146.316 276.78,179.766 305.748,196.491 334.717,179.766 334.717,146.316 
				305.748,129.592 			"/>
			<polygon fill="none" stroke="#FF0000" stroke-width="2" stroke-miterlimit="10" points="276.78,146.316 276.78,179.766 
				305.748,196.491 334.717,179.766 334.717,146.316 305.748,129.592 			"/>
		</g>
		<g>
			
				<rect x="294.171" y="157.777" transform="matrix(0.8646 -0.5025 0.5025 0.8646 -43.8824 172.0359)" fill="#FFFFFF" width="6.146" height="19.315"/>
			
				<rect x="310.11" y="148.512" transform="matrix(0.8646 -0.5025 0.5025 0.8646 -37.0685 178.7905)" fill="#FFFFFF" width="6.146" height="19.315"/>
			
				<rect x="299.947" y="161.047" transform="matrix(0.8646 -0.5025 0.5025 0.8646 -40.4754 175.4135)" fill="#FFFFFF" width="10.535" height="3.512"/>
			
				<rect x="289.737" y="164.377" transform="matrix(0.8646 -0.5025 0.5025 0.8646 -46.1535 169.7845)" fill="#FFFFFF" width="4.39" height="12.291"/>
			
				<rect x="316.302" y="148.937" transform="matrix(0.8646 -0.5025 0.5025 0.8646 -34.7974 181.0426)" fill="#FFFFFF" width="4.39" height="12.291"/>
		</g>
	</g>
	<g>
		<g>
			<polygon fill="#751A23" points="-46.381,146.316 -46.381,179.766 -17.413,196.491 11.556,179.766 11.556,146.316 
				-17.413,129.592 			"/>
			<polygon fill="none" stroke="#FF0000" stroke-width="2" stroke-miterlimit="10" points="-46.381,146.316 -46.381,179.766 
				-17.413,196.491 11.556,179.766 11.556,146.316 -17.413,129.592 			"/>
		</g>
		<g>
			<path fill="#FFFFFF" d="M-17.007,182.787c-2.244-1.136-7.255-3.789-8.387-4.921c-0.587-0.587-2.117-3.924-3.179-7.818
				c-1.171-4.29-1.29-7.487-0.319-8.552c0.967-1.06,1.884-1.553,2.887-1.553c1.142,0,2.324,0.636,3.576,1.31
				c1.452,0.781,2.953,1.589,4.672,1.589c0.251,0,0.503-0.018,0.75-0.054c0.247,0.035,0.499,0.054,0.75,0.054
				c0.001,0,0.001,0,0.001,0c1.718,0,3.219-0.808,4.67-1.589c1.252-0.673,2.434-1.31,3.576-1.31c1.003,0,1.92,0.494,2.886,1.553
				c0.972,1.065,0.853,4.262-0.317,8.552c-1.062,3.894-2.593,7.231-3.179,7.818C-9.752,178.999-14.763,181.652-17.007,182.787z"/>
			<path fill="#FFFFFF" d="M-37.104,161.799c-0.532-3.775-0.025-6.423,1.582-8.308c1.804-2.115,5.101-3.235,9.803-3.332l0.923,7.132
				c-0.507-0.122-0.992-0.183-1.467-0.183c-1.755,0-3.321,0.783-4.791,2.394c-0.775,0.849-1.209,2.118-1.296,3.781L-37.104,161.799z
				"/>
			<path fill="#FFFFFF" d="M-1.665,163.283c-0.087-1.663-0.522-2.932-1.297-3.781c-1.469-1.61-3.036-2.393-4.79-2.393
				c-0.475,0-0.96,0.06-1.467,0.183l0.923-7.132c4.702,0.097,7.998,1.217,9.803,3.332c1.607,1.884,2.114,4.533,1.582,8.308
				L-1.665,163.283z"/>
		</g>
	</g>
	<g>
		<g enable-background="new    ">
			<path fill="#FFFFFF" d="M89.872,158.976c-2.013,1.645-3.019,3.473-3.019,5.485c0,1.333,0.507,2.431,1.521,3.295
				c1.014,0.865,2.339,1.297,3.973,1.297h2.579l1.219-3.614h-5.636l4.712-6.463h10.358l-5.332,16.542h-9.993
				c-3.289,0-5.982-0.949-8.08-2.849c-2.013-1.814-3.019-4.055-3.019-6.72c0-2.041,0.737-4.365,2.211-6.973H89.872z M83.195,156.382
				c3.515-4.253,8.632-6.379,15.351-6.379h9.993l-2.118,6.379H83.195z"/>
			<path fill="#FFFFFF" d="M110.155,175.518c-1.673,0-3.019-0.432-4.04-1.297c-1.021-0.864-1.531-1.978-1.531-3.338
				c0-0.567,0.099-1.148,0.297-1.744l3.252-10.163h7.421l-2.884,8.89c-0.062,0.112-0.092,0.227-0.092,0.339
				c0,0.623,0.38,0.934,1.143,0.934h5.842l3.304-10.163h7.377l-5.376,16.542L110.155,175.518L110.155,175.518z M108.977,156.382
				l2.114-6.379h7.332l-2.024,6.379H108.977z M123.666,156.382l2.118-6.379h7.378l-2.118,6.379H123.666z"/>
			<path fill="#FFFFFF" d="M151.957,175.518h-7.612l-0.638-10.078h-13.735l4.55-6.463h16.329L151.957,175.518z M136.351,156.382
				l4.507-6.379h9.398l0.425,6.379H136.351z"/>
			<path fill="#FFFFFF" d="M180.532,158.976c-0.822,1.446-1.998,2.708-3.529,3.785c0.709,0.907,1.063,1.971,1.063,3.188
				c0,0.681-0.114,1.361-0.341,2.042l-2.424,7.526h-7.371l2.688-8.209c0.061-0.17,0.092-0.34,0.092-0.51
				c0-0.906-0.539-1.359-1.614-1.359h-5.224l-3.265,10.078h-7.375l5.357-16.542L180.532,158.976L180.532,158.976z M156.804,156.382
				l4.721-6.379h13.396c1.956,0,3.536,0.518,4.741,1.553c1.204,1.035,1.807,2.346,1.807,3.933c0,0.284-0.015,0.582-0.042,0.894
				L156.804,156.382L156.804,156.382z"/>
			<path fill="#FFFFFF" d="M207.62,162.761c-1.305,4.025-3.218,7.03-5.741,9.014c-3.118,2.495-7.483,3.742-13.097,3.742h-9.993
				l5.357-16.542h7.331l-3.22,10.078h2.597c2.015,0,3.931-0.616,5.747-1.85s3.009-2.713,3.576-4.443
				c0.198-0.567,0.299-1.134,0.299-1.701c0-0.766-0.171-1.46-0.511-2.084h8.25C208.243,160.196,208.045,161.458,207.62,162.761z
				 M187.081,150.004h9.993c2.664,0,4.961,0.596,6.889,1.786c1.843,1.134,3.104,2.665,3.785,4.593H182.36L187.081,150.004z"/>
		</g>
	</g>
	<g>
		<path fill="#FFFFFF" d="M80.125,24.109c-0.044-0.458-0.089-0.887-0.117-1.142c-0.21-1.254-0.561-2.478-1.05-3.662l-2.002,0
			l-1.396,0v0l-20.949-0.002c0.423-1.923,1.028-3.669,1.774-5.163c1.654-3.313,4.004-5.387,6.612-5.401
			c-0.164,0.001-0.327,0.007-0.489,0.017c0.194-0.014,0.393-0.022,0.599-0.023c-2.286,0.007-4.506,0.458-6.597,1.342
			c-2.035,0.86-3.862,2.092-5.43,3.66c-1.569,1.568-2.8,3.395-3.661,5.43c-0.019,0.045-0.038,0.091-0.057,0.137
			c-0.489,1.184-0.84,2.408-1.05,3.662c-0.055,0.33-0.101,0.661-0.137,0.995c-0.005,0.05-0.01,0.1-0.015,0.151H80.125z"/>
		<path fill="#FFFFFF" d="M46.16,27.531c0.003,0.03,0.006,0.06,0.009,0.09c0.257,2.33,0.335,2.82,1.205,4.741l3.291,0l20.764,0.002
			c0,0.002-0.001,0.004-0.001,0.005c-0.43,1.941-1.045,3.702-1.804,5.204c-1.604,3.174-3.85,5.193-6.348,5.321
			c-0.039,0-0.079,0.001-0.118,0.001l0,0.003c-0.043,0.001-0.085,0.002-0.128,0.002v0.006c0,0,0,0,0,0
			c0.108,0,0.215-0.002,0.323-0.007c2.237-0.025,4.408-0.475,6.456-1.342c2.035-0.86,3.862-2.092,5.43-3.66
			c1.569-1.568,2.8-3.395,3.661-5.43c0.015-0.035,0.029-0.07,0.044-0.105c0.492-1.184,0.845-2.408,1.058-3.662
			c0.061-0.357,0.11-0.717,0.148-1.078c0.003-0.031,0.006-0.062,0.009-0.093H46.16z M63.648,42.883
			c0.64-0.049,1.811-0.271,2.996-0.574C65.683,42.638,64.68,42.835,63.648,42.883z"/>
	</g>
	<g>
		<path fill="#FFFFFF" d="M55.66,303.162c0.541-2.608,2.616-4.661,5.237-5.168v-10.689c-0.743,0.054-1.482,0.156-2.209,0.304
			c-1.11,0.227-2.202,0.566-3.246,1.008c-1.023,0.433-2.01,0.968-2.933,1.592c-0.912,0.616-1.77,1.324-2.55,2.104
			c-0.779,0.779-1.487,1.637-2.104,2.55c-0.623,0.923-1.159,1.909-1.592,2.933c-0.441,1.044-0.78,2.136-1.008,3.246
			c-0.143,0.698-0.242,1.408-0.298,2.122H55.66z"/>
		<path fill="#FFFFFF" d="M63.594,298.029c2.539,0.562,4.536,2.581,5.065,5.132h10.7c-0.056-0.714-0.155-1.424-0.298-2.122
			c-0.227-1.11-0.566-2.202-1.008-3.246c-0.433-1.023-0.968-2.01-1.592-2.933c-0.616-0.912-1.324-1.77-2.104-2.55
			c-0.779-0.779-1.637-1.487-2.55-2.104c-0.923-0.623-1.909-1.159-2.933-1.592c-1.043-0.441-2.135-0.78-3.246-1.008
			c-0.67-0.137-1.351-0.234-2.036-0.291V298.029z"/>
		<path fill="#FFFFFF" d="M60.897,311.027c-2.62-0.507-4.696-2.56-5.237-5.168h-10.7c0.056,0.714,0.155,1.424,0.298,2.123
			c0.227,1.11,0.566,2.202,1.008,3.246c0.433,1.023,0.968,2.01,1.592,2.933c0.616,0.912,1.324,1.77,2.104,2.55
			c0.779,0.779,1.637,1.487,2.55,2.104c0.923,0.623,1.909,1.159,2.933,1.592c1.044,0.441,2.136,0.78,3.246,1.008
			c0.726,0.149,1.465,0.25,2.209,0.304V311.027z"/>
		<path fill="#FFFFFF" d="M68.659,305.859c-0.529,2.551-2.526,4.571-5.065,5.132v10.711c0.685-0.057,1.366-0.154,2.036-0.291
			c1.11-0.227,2.202-0.566,3.246-1.008c1.023-0.433,2.01-0.968,2.933-1.592c0.912-0.616,1.77-1.324,2.55-2.104
			c0.779-0.779,1.487-1.637,2.104-2.55c0.623-0.923,1.159-1.909,1.592-2.933c0.441-1.043,0.78-2.135,1.008-3.246
			c0.143-0.698,0.242-1.408,0.298-2.123H68.659z"/>
	</g>
</g>
</svg>
