<?xml version="1.0" encoding="utf-8"?>
<!-- Generator: Adobe Illustrator 17.0.2, SVG Export Plug-In . SVG Version: 6.00 Build 0)  -->
<!DOCTYPE svg PUBLIC "-//W3C//DTD SVG 1.1//EN" "http://www.w3.org/Graphics/SVG/1.1/DTD/svg11.dtd">
<svg version="1.1" id="Layer_1" xmlns="http://www.w3.org/2000/svg" xmlns:xlink="http://www.w3.org/1999/xlink" x="0px" y="0px"
	 width="813.675px" height="458.855px" viewBox="0 0 813.675 458.855" enable-background="new 0 0 813.675 458.855"
	 xml:space="preserve">
<defs>
	<filter id="Adobe_OpacityMaskFilter" filterUnits="userSpaceOnUse" x="6.886" y="4.464" width="801.904" height="446.892">
		
			<feColorMatrix  type="matrix" values="-1 0 0 0 1  0 -1 0 0 1  0 0 -1 0 1  0 0 0 1 0" color-interpolation-filters="sRGB" result="source"/>
	</filter>
</defs>
<mask maskUnits="userSpaceOnUse" x="6.886" y="4.464" width="801.904" height="446.892" id="SVGID_1_">
	<g filter="url(#Adobe_OpacityMaskFilter)">
		<linearGradient id="SVGID_2_" gradientUnits="userSpaceOnUse" x1="407.8373" y1="451.0123" x2="407.8373" y2="-6.9877">
			<stop  offset="0" style="stop-color:#FFFFFF"/>
			<stop  offset="1" style="stop-color:#000000"/>
		</linearGradient>
		<rect x="-3.663" y="-6.988" fill="url(#SVGID_2_)" width="823" height="458"/>
	</g>
</mask>
<g mask="url(#SVGID_1_)">
	<linearGradient id="SVGID_3_" gradientUnits="userSpaceOnUse" x1="664.7868" y1="400.8979" x2="664.7868" y2="301.8643">
		<stop  offset="0" style="stop-color:#EBEFF0"/>
		<stop  offset="1" style="stop-color:#D6DFE1"/>
	</linearGradient>
	<polygon fill="url(#SVGID_3_)" stroke="#FFFFFF" stroke-width="1.8219" stroke-miterlimit="10" points="693.37,400.898 
		721.964,351.381 693.37,301.864 636.194,301.864 607.61,351.381 636.194,400.898 	"/>
	<linearGradient id="SVGID_4_" gradientUnits="userSpaceOnUse" x1="750.5603" y1="450.4453" x2="750.5603" y2="351.4117">
		<stop  offset="0" style="stop-color:#EBEFF0"/>
		<stop  offset="1" style="stop-color:#DCE2E5"/>
	</linearGradient>
	<polygon fill="url(#SVGID_4_)" stroke="#FFFFFF" stroke-width="1.8219" stroke-miterlimit="10" points="779.144,450.445 
		807.737,400.928 779.144,351.412 721.967,351.412 693.383,400.928 721.967,450.445 	"/>
	<g>
		<linearGradient id="SVGID_5_" gradientUnits="userSpaceOnUse" x1="493.4254" y1="400.8979" x2="493.4254" y2="301.8643">
			<stop  offset="0" style="stop-color:#EBEFF0"/>
			<stop  offset="1" style="stop-color:#D6DFE1"/>
		</linearGradient>
		<polygon fill="url(#SVGID_5_)" stroke="#FFFFFF" stroke-width="1.8219" stroke-miterlimit="10" points="522.009,400.898 
			550.602,351.381 522.009,301.864 464.832,301.864 436.248,351.381 464.832,400.898 		"/>
		<linearGradient id="SVGID_6_" gradientUnits="userSpaceOnUse" x1="579.1988" y1="450.4453" x2="579.1988" y2="351.4117">
			<stop  offset="0" style="stop-color:#EBEFF0"/>
			<stop  offset="1" style="stop-color:#DCE2E5"/>
		</linearGradient>
		<polygon fill="url(#SVGID_6_)" stroke="#FFFFFF" stroke-width="1.8219" stroke-miterlimit="10" points="607.782,450.445 
			636.376,400.928 607.782,351.412 550.606,351.412 522.022,400.928 550.606,450.445 		"/>
	</g>
	<g>
		<linearGradient id="SVGID_7_" gradientUnits="userSpaceOnUse" x1="322.0639" y1="400.8979" x2="322.0639" y2="301.8643">
			<stop  offset="0" style="stop-color:#EBEFF0"/>
			<stop  offset="1" style="stop-color:#D6DFE1"/>
		</linearGradient>
		<polygon fill="url(#SVGID_7_)" stroke="#FFFFFF" stroke-width="1.8219" stroke-miterlimit="10" points="350.647,400.898 
			379.241,351.381 350.647,301.864 293.471,301.864 264.887,351.381 293.471,400.898 		"/>
		<linearGradient id="SVGID_8_" gradientUnits="userSpaceOnUse" x1="407.8373" y1="450.4453" x2="407.8373" y2="351.4117">
			<stop  offset="0" style="stop-color:#EBEFF0"/>
			<stop  offset="1" style="stop-color:#DCE2E5"/>
		</linearGradient>
		<polygon fill="url(#SVGID_8_)" stroke="#FFFFFF" stroke-width="1.8219" stroke-miterlimit="10" points="436.421,450.445 
			465.014,400.928 436.421,351.412 379.244,351.412 350.66,400.928 379.244,450.445 		"/>
	</g>
	<g>
		<linearGradient id="SVGID_9_" gradientUnits="userSpaceOnUse" x1="150.7024" y1="400.8979" x2="150.7024" y2="301.8643">
			<stop  offset="0" style="stop-color:#EBEFF0"/>
			<stop  offset="1" style="stop-color:#D6DFE1"/>
		</linearGradient>
		<polygon fill="url(#SVGID_9_)" stroke="#FFFFFF" stroke-width="1.8219" stroke-miterlimit="10" points="179.286,400.898 
			207.879,351.381 179.286,301.864 122.109,301.864 93.525,351.381 122.109,400.898 		"/>
		<linearGradient id="SVGID_10_" gradientUnits="userSpaceOnUse" x1="236.4759" y1="450.4453" x2="236.4759" y2="351.4117">
			<stop  offset="0" style="stop-color:#EBEFF0"/>
			<stop  offset="1" style="stop-color:#DCE2E5"/>
		</linearGradient>
		<polygon fill="url(#SVGID_10_)" stroke="#FFFFFF" stroke-width="1.8219" stroke-miterlimit="10" points="265.059,450.445 
			293.653,400.928 265.059,351.412 207.883,351.412 179.299,400.928 207.883,450.445 		"/>
	</g>
	<linearGradient id="SVGID_11_" gradientUnits="userSpaceOnUse" x1="664.7868" y1="302.0681" x2="664.7868" y2="203.0346">
		<stop  offset="0" style="stop-color:#EBEFF0"/>
		<stop  offset="1" style="stop-color:#D6DFE1"/>
	</linearGradient>
	<polygon fill="url(#SVGID_11_)" stroke="#FFFFFF" stroke-width="1.8219" stroke-miterlimit="10" points="693.37,302.068 
		721.964,252.551 693.37,203.035 636.194,203.035 607.61,252.551 636.194,302.068 	"/>
	<linearGradient id="SVGID_12_" gradientUnits="userSpaceOnUse" x1="750.5603" y1="351.6156" x2="750.5603" y2="252.582">
		<stop  offset="0" style="stop-color:#EBEFF0"/>
		<stop  offset="1" style="stop-color:#DCE2E5"/>
	</linearGradient>
	<polygon fill="url(#SVGID_12_)" stroke="#FFFFFF" stroke-width="1.8219" stroke-miterlimit="10" points="779.144,351.616 
		807.737,302.099 779.144,252.582 721.967,252.582 693.383,302.099 721.967,351.616 	"/>
	<g>
		<linearGradient id="SVGID_13_" gradientUnits="userSpaceOnUse" x1="493.4254" y1="302.0681" x2="493.4254" y2="203.0346">
			<stop  offset="0" style="stop-color:#EBEFF0"/>
			<stop  offset="1" style="stop-color:#D6DFE1"/>
		</linearGradient>
		<polygon fill="url(#SVGID_13_)" stroke="#FFFFFF" stroke-width="1.8219" stroke-miterlimit="10" points="522.009,302.068 
			550.602,252.551 522.009,203.035 464.832,203.035 436.248,252.551 464.832,302.068 		"/>
		<linearGradient id="SVGID_14_" gradientUnits="userSpaceOnUse" x1="579.1988" y1="351.6156" x2="579.1988" y2="252.582">
			<stop  offset="0" style="stop-color:#EBEFF0"/>
			<stop  offset="1" style="stop-color:#DCE2E5"/>
		</linearGradient>
		<polygon fill="url(#SVGID_14_)" stroke="#FFFFFF" stroke-width="1.8219" stroke-miterlimit="10" points="607.782,351.616 
			636.376,302.099 607.782,252.582 550.606,252.582 522.022,302.099 550.606,351.616 		"/>
	</g>
	<g>
		<linearGradient id="SVGID_15_" gradientUnits="userSpaceOnUse" x1="322.0639" y1="302.0681" x2="322.0639" y2="203.0346">
			<stop  offset="0" style="stop-color:#EBEFF0"/>
			<stop  offset="1" style="stop-color:#D6DFE1"/>
		</linearGradient>
		<polygon fill="url(#SVGID_15_)" stroke="#FFFFFF" stroke-width="1.8219" stroke-miterlimit="10" points="350.647,302.068 
			379.241,252.551 350.647,203.035 293.471,203.035 264.887,252.551 293.471,302.068 		"/>
		<linearGradient id="SVGID_16_" gradientUnits="userSpaceOnUse" x1="407.8373" y1="351.6156" x2="407.8373" y2="252.582">
			<stop  offset="0" style="stop-color:#EBEFF0"/>
			<stop  offset="1" style="stop-color:#DCE2E5"/>
		</linearGradient>
		<polygon fill="url(#SVGID_16_)" stroke="#FFFFFF" stroke-width="1.8219" stroke-miterlimit="10" points="436.421,351.616 
			465.014,302.099 436.421,252.582 379.244,252.582 350.66,302.099 379.244,351.616 		"/>
	</g>
	<g>
		<linearGradient id="SVGID_17_" gradientUnits="userSpaceOnUse" x1="150.7024" y1="302.0681" x2="150.7024" y2="203.0346">
			<stop  offset="0" style="stop-color:#EBEFF0"/>
			<stop  offset="1" style="stop-color:#D6DFE1"/>
		</linearGradient>
		<polygon fill="url(#SVGID_17_)" stroke="#FFFFFF" stroke-width="1.8219" stroke-miterlimit="10" points="179.286,302.068 
			207.879,252.551 179.286,203.035 122.109,203.035 93.525,252.551 122.109,302.068 		"/>
		<linearGradient id="SVGID_18_" gradientUnits="userSpaceOnUse" x1="236.4759" y1="351.6156" x2="236.4759" y2="252.582">
			<stop  offset="0" style="stop-color:#EBEFF0"/>
			<stop  offset="1" style="stop-color:#DCE2E5"/>
		</linearGradient>
		<polygon fill="url(#SVGID_18_)" stroke="#FFFFFF" stroke-width="1.8219" stroke-miterlimit="10" points="265.059,351.616 
			293.653,302.099 265.059,252.582 207.883,252.582 179.299,302.099 207.883,351.616 		"/>
	</g>
	<linearGradient id="SVGID_19_" gradientUnits="userSpaceOnUse" x1="664.7868" y1="203.2383" x2="664.7868" y2="104.2048">
		<stop  offset="0" style="stop-color:#EBEFF0"/>
		<stop  offset="1" style="stop-color:#D6DFE1"/>
	</linearGradient>
	<polygon fill="url(#SVGID_19_)" stroke="#FFFFFF" stroke-width="1.8219" stroke-miterlimit="10" points="693.37,203.238 
		721.964,153.722 693.37,104.205 636.194,104.205 607.61,153.722 636.194,203.238 	"/>
	<linearGradient id="SVGID_20_" gradientUnits="userSpaceOnUse" x1="750.5603" y1="252.7858" x2="750.5603" y2="153.7522">
		<stop  offset="0" style="stop-color:#EBEFF0"/>
		<stop  offset="1" style="stop-color:#DCE2E5"/>
	</linearGradient>
	<polygon fill="url(#SVGID_20_)" stroke="#FFFFFF" stroke-width="1.8219" stroke-miterlimit="10" points="779.144,252.786 
		807.737,203.269 779.144,153.752 721.967,153.752 693.383,203.269 721.967,252.786 	"/>
	<g>
		<linearGradient id="SVGID_21_" gradientUnits="userSpaceOnUse" x1="493.4254" y1="203.2383" x2="493.4254" y2="104.2048">
			<stop  offset="0" style="stop-color:#EBEFF0"/>
			<stop  offset="1" style="stop-color:#D6DFE1"/>
		</linearGradient>
		<polygon fill="url(#SVGID_21_)" stroke="#FFFFFF" stroke-width="1.8219" stroke-miterlimit="10" points="522.009,203.238 
			550.602,153.722 522.009,104.205 464.832,104.205 436.248,153.722 464.832,203.238 		"/>
		<linearGradient id="SVGID_22_" gradientUnits="userSpaceOnUse" x1="579.1988" y1="252.7858" x2="579.1988" y2="153.7522">
			<stop  offset="0" style="stop-color:#EBEFF0"/>
			<stop  offset="1" style="stop-color:#DCE2E5"/>
		</linearGradient>
		<polygon fill="url(#SVGID_22_)" stroke="#FFFFFF" stroke-width="1.8219" stroke-miterlimit="10" points="607.782,252.786 
			636.376,203.269 607.782,153.752 550.606,153.752 522.022,203.269 550.606,252.786 		"/>
	</g>
	<g>
		<linearGradient id="SVGID_23_" gradientUnits="userSpaceOnUse" x1="322.0639" y1="203.2383" x2="322.0639" y2="104.2048">
			<stop  offset="0" style="stop-color:#EBEFF0"/>
			<stop  offset="1" style="stop-color:#D6DFE1"/>
		</linearGradient>
		<polygon fill="url(#SVGID_23_)" stroke="#FFFFFF" stroke-width="1.8219" stroke-miterlimit="10" points="350.647,203.238 
			379.241,153.722 350.647,104.205 293.471,104.205 264.887,153.722 293.471,203.238 		"/>
		<linearGradient id="SVGID_24_" gradientUnits="userSpaceOnUse" x1="407.8373" y1="252.7858" x2="407.8373" y2="153.7522">
			<stop  offset="0" style="stop-color:#EBEFF0"/>
			<stop  offset="1" style="stop-color:#DCE2E5"/>
		</linearGradient>
		<polygon fill="url(#SVGID_24_)" stroke="#FFFFFF" stroke-width="1.8219" stroke-miterlimit="10" points="436.421,252.786 
			465.014,203.269 436.421,153.752 379.244,153.752 350.66,203.269 379.244,252.786 		"/>
	</g>
	<g>
		<linearGradient id="SVGID_25_" gradientUnits="userSpaceOnUse" x1="150.7024" y1="203.2383" x2="150.7024" y2="104.2048">
			<stop  offset="0" style="stop-color:#EBEFF0"/>
			<stop  offset="1" style="stop-color:#D6DFE1"/>
		</linearGradient>
		<polygon fill="url(#SVGID_25_)" stroke="#FFFFFF" stroke-width="1.8219" stroke-miterlimit="10" points="179.286,203.238 
			207.879,153.722 179.286,104.205 122.109,104.205 93.525,153.722 122.109,203.238 		"/>
		<linearGradient id="SVGID_26_" gradientUnits="userSpaceOnUse" x1="236.4759" y1="252.7858" x2="236.4759" y2="153.7522">
			<stop  offset="0" style="stop-color:#EBEFF0"/>
			<stop  offset="1" style="stop-color:#DCE2E5"/>
		</linearGradient>
		<polygon fill="url(#SVGID_26_)" stroke="#FFFFFF" stroke-width="1.8219" stroke-miterlimit="10" points="265.059,252.786 
			293.653,203.269 265.059,153.752 207.883,153.752 179.299,203.269 207.883,252.786 		"/>
	</g>
	<linearGradient id="SVGID_27_" gradientUnits="userSpaceOnUse" x1="664.7868" y1="104.4086" x2="664.7868" y2="5.375">
		<stop  offset="0" style="stop-color:#EBEFF0"/>
		<stop  offset="1" style="stop-color:#D6DFE1"/>
	</linearGradient>
	<polygon fill="url(#SVGID_27_)" stroke="#FFFFFF" stroke-width="1.8219" stroke-miterlimit="10" points="693.37,104.409 
		721.964,54.892 693.37,5.375 636.194,5.375 607.61,54.892 636.194,104.409 	"/>
	<linearGradient id="SVGID_28_" gradientUnits="userSpaceOnUse" x1="750.5603" y1="153.956" x2="750.5603" y2="54.9224">
		<stop  offset="0" style="stop-color:#EBEFF0"/>
		<stop  offset="1" style="stop-color:#DCE2E5"/>
	</linearGradient>
	<polygon fill="url(#SVGID_28_)" stroke="#FFFFFF" stroke-width="1.8219" stroke-miterlimit="10" points="779.144,153.956 
		807.737,104.439 779.144,54.922 721.967,54.922 693.383,104.439 721.967,153.956 	"/>
	<linearGradient id="SVGID_29_" gradientUnits="userSpaceOnUse" x1="65.1144" y1="450.4453" x2="65.1144" y2="351.4117">
		<stop  offset="0" style="stop-color:#EBEFF0"/>
		<stop  offset="1" style="stop-color:#DCE2E5"/>
	</linearGradient>
	<polygon fill="url(#SVGID_29_)" stroke="#FFFFFF" stroke-width="1.8219" stroke-miterlimit="10" points="93.698,450.445 
		122.291,400.928 93.698,351.412 36.521,351.412 7.937,400.928 36.521,450.445 	"/>
	<linearGradient id="SVGID_30_" gradientUnits="userSpaceOnUse" x1="65.1144" y1="351.6156" x2="65.1144" y2="252.582">
		<stop  offset="0" style="stop-color:#EBEFF0"/>
		<stop  offset="1" style="stop-color:#DCE2E5"/>
	</linearGradient>
	<polygon fill="url(#SVGID_30_)" stroke="#FFFFFF" stroke-width="1.8219" stroke-miterlimit="10" points="93.698,351.616 
		122.291,302.099 93.698,252.582 36.521,252.582 7.937,302.099 36.521,351.616 	"/>
	<linearGradient id="SVGID_31_" gradientUnits="userSpaceOnUse" x1="65.1144" y1="252.7858" x2="65.1144" y2="153.7522">
		<stop  offset="0" style="stop-color:#EBEFF0"/>
		<stop  offset="1" style="stop-color:#DCE2E5"/>
	</linearGradient>
	<polygon fill="url(#SVGID_31_)" stroke="#FFFFFF" stroke-width="1.8219" stroke-miterlimit="10" points="93.698,252.786 
		122.291,203.269 93.698,153.752 36.521,153.752 7.937,203.269 36.521,252.786 	"/>
	<linearGradient id="SVGID_32_" gradientUnits="userSpaceOnUse" x1="65.1144" y1="153.956" x2="65.1144" y2="54.9224">
		<stop  offset="0" style="stop-color:#EBEFF0"/>
		<stop  offset="1" style="stop-color:#DCE2E5"/>
	</linearGradient>
	<polygon fill="url(#SVGID_32_)" stroke="#FFFFFF" stroke-width="1.8219" stroke-miterlimit="10" points="93.698,153.956 
		122.291,104.439 93.698,54.922 36.521,54.922 7.937,104.439 36.521,153.956 	"/>
	<g>
		<linearGradient id="SVGID_33_" gradientUnits="userSpaceOnUse" x1="493.4254" y1="104.4086" x2="493.4254" y2="5.375">
			<stop  offset="0" style="stop-color:#EBEFF0"/>
			<stop  offset="1" style="stop-color:#D6DFE1"/>
		</linearGradient>
		<polygon fill="url(#SVGID_33_)" stroke="#FFFFFF" stroke-width="1.8219" stroke-miterlimit="10" points="522.009,104.409 
			550.602,54.892 522.009,5.375 464.832,5.375 436.248,54.892 464.832,104.409 		"/>
		<linearGradient id="SVGID_34_" gradientUnits="userSpaceOnUse" x1="579.1988" y1="153.956" x2="579.1988" y2="54.9224">
			<stop  offset="0" style="stop-color:#EBEFF0"/>
			<stop  offset="1" style="stop-color:#DCE2E5"/>
		</linearGradient>
		<polygon fill="url(#SVGID_34_)" stroke="#FFFFFF" stroke-width="1.8219" stroke-miterlimit="10" points="607.782,153.956 
			636.376,104.439 607.782,54.922 550.606,54.922 522.022,104.439 550.606,153.956 		"/>
	</g>
	<g>
		<linearGradient id="SVGID_35_" gradientUnits="userSpaceOnUse" x1="322.0639" y1="104.4086" x2="322.0639" y2="5.375">
			<stop  offset="0" style="stop-color:#EBEFF0"/>
			<stop  offset="1" style="stop-color:#D6DFE1"/>
		</linearGradient>
		<polygon fill="url(#SVGID_35_)" stroke="#FFFFFF" stroke-width="1.8219" stroke-miterlimit="10" points="350.647,104.409 
			379.241,54.892 350.647,5.375 293.471,5.375 264.887,54.892 293.471,104.409 		"/>
		<linearGradient id="SVGID_36_" gradientUnits="userSpaceOnUse" x1="407.8373" y1="153.956" x2="407.8373" y2="54.9224">
			<stop  offset="0" style="stop-color:#EBEFF0"/>
			<stop  offset="1" style="stop-color:#DCE2E5"/>
		</linearGradient>
		<polygon fill="url(#SVGID_36_)" stroke="#FFFFFF" stroke-width="1.8219" stroke-miterlimit="10" points="436.421,153.956 
			465.014,104.439 436.421,54.922 379.244,54.922 350.66,104.439 379.244,153.956 		"/>
	</g>
	<g>
		<linearGradient id="SVGID_37_" gradientUnits="userSpaceOnUse" x1="150.7024" y1="104.4086" x2="150.7024" y2="5.375">
			<stop  offset="0" style="stop-color:#EBEFF0"/>
			<stop  offset="1" style="stop-color:#D6DFE1"/>
		</linearGradient>
		<polygon fill="url(#SVGID_37_)" stroke="#FFFFFF" stroke-width="1.8219" stroke-miterlimit="10" points="179.286,104.409 
			207.879,54.892 179.286,5.375 122.109,5.375 93.525,54.892 122.109,104.409 		"/>
		<linearGradient id="SVGID_38_" gradientUnits="userSpaceOnUse" x1="236.4759" y1="153.956" x2="236.4759" y2="54.9224">
			<stop  offset="0" style="stop-color:#EBEFF0"/>
			<stop  offset="1" style="stop-color:#DCE2E5"/>
		</linearGradient>
		<polygon fill="url(#SVGID_38_)" stroke="#FFFFFF" stroke-width="1.8219" stroke-miterlimit="10" points="265.059,153.956 
			293.653,104.439 265.059,54.922 207.883,54.922 179.299,104.439 207.883,153.956 		"/>
	</g>
</g>
</svg>
