<?xml version="1.0" encoding="utf-8"?>
<!-- Generator: Adobe Illustrator 17.0.2, SVG Export Plug-In . SVG Version: 6.00 Build 0)  -->
<!DOCTYPE svg PUBLIC "-//W3C//DTD SVG 1.1//EN" "http://www.w3.org/Graphics/SVG/1.1/DTD/svg11.dtd">
<svg version="1.1" id="Layer_1" xmlns="http://www.w3.org/2000/svg" xmlns:xlink="http://www.w3.org/1999/xlink" x="0px" y="0px"
	 width="1232.938px" height="665.396px" viewBox="0 0 1232.938 665.396" enable-background="new 0 0 1232.938 665.396"
	 xml:space="preserve">
<defs>
	<filter id="Adobe_OpacityMaskFilter" filterUnits="userSpaceOnUse" x="-47.608" y="17.985" width="1330.201" height="740.877">
		
			<feColorMatrix  type="matrix" values="-1 0 0 0 1  0 -1 0 0 1  0 0 -1 0 1  0 0 0 1 0" color-interpolation-filters="sRGB" result="source"/>
	</filter>
</defs>
<mask maskUnits="userSpaceOnUse" x="-47.608" y="17.985" width="1330.201" height="740.877" id="SVGID_1_">
	<g filter="url(#Adobe_OpacityMaskFilter)">
		<linearGradient id="SVGID_2_" gradientUnits="userSpaceOnUse" x1="617.4922" y1="758.8927" x2="617.4922" y2="-1.6332">
			<stop  offset="0" style="stop-color:#FFFFFF"/>
			<stop  offset="1" style="stop-color:#000000"/>
		</linearGradient>
		<rect x="-65.819" y="-1.633" fill="url(#SVGID_2_)" width="1366.622" height="760.526"/>
	</g>
</mask>
<g opacity="0.7" mask="url(#SVGID_1_)">
	<linearGradient id="SVGID_3_" gradientUnits="userSpaceOnUse" x1="1044.1663" y1="675.6759" x2="1044.1663" y2="511.2271">
		<stop  offset="0" style="stop-color:#EBEFF0"/>
		<stop  offset="1" style="stop-color:#D6DFE1"/>
	</linearGradient>
	<polygon fill="url(#SVGID_3_)" stroke="#FFFFFF" stroke-width="1.8219" stroke-miterlimit="10" points="1091.63,675.676 
		1139.111,593.451 1091.63,511.227 996.686,511.227 949.222,593.451 996.686,675.676 	"/>
	<linearGradient id="SVGID_4_" gradientUnits="userSpaceOnUse" x1="1186.5962" y1="757.9513" x2="1186.5962" y2="593.5023">
		<stop  offset="0" style="stop-color:#EBEFF0"/>
		<stop  offset="1" style="stop-color:#DCE2E5"/>
	</linearGradient>
	<polygon fill="url(#SVGID_4_)" stroke="#FFFFFF" stroke-width="1.8219" stroke-miterlimit="10" points="1234.06,757.951 
		1281.541,675.727 1234.06,593.502 1139.116,593.502 1091.652,675.727 1139.116,757.951 	"/>
	<g>
		<linearGradient id="SVGID_5_" gradientUnits="userSpaceOnUse" x1="759.6142" y1="675.6759" x2="759.6142" y2="511.2271">
			<stop  offset="0" style="stop-color:#EBEFF0"/>
			<stop  offset="1" style="stop-color:#D6DFE1"/>
		</linearGradient>
		<polygon fill="url(#SVGID_5_)" stroke="#FFFFFF" stroke-width="1.8219" stroke-miterlimit="10" points="807.078,675.676 
			854.559,593.451 807.078,511.227 712.134,511.227 664.67,593.451 712.134,675.676 		"/>
		<linearGradient id="SVGID_6_" gradientUnits="userSpaceOnUse" x1="902.0442" y1="757.9513" x2="902.0442" y2="593.5023">
			<stop  offset="0" style="stop-color:#EBEFF0"/>
			<stop  offset="1" style="stop-color:#DCE2E5"/>
		</linearGradient>
		<polygon fill="url(#SVGID_6_)" stroke="#FFFFFF" stroke-width="1.8219" stroke-miterlimit="10" points="949.508,757.951 
			996.989,675.727 949.508,593.502 854.564,593.502 807.1,675.727 854.564,757.951 		"/>
	</g>
	<g>
		<linearGradient id="SVGID_7_" gradientUnits="userSpaceOnUse" x1="475.0622" y1="675.6759" x2="475.0622" y2="511.2271">
			<stop  offset="0" style="stop-color:#EBEFF0"/>
			<stop  offset="1" style="stop-color:#D6DFE1"/>
		</linearGradient>
		<polygon fill="url(#SVGID_7_)" stroke="#FFFFFF" stroke-width="1.8219" stroke-miterlimit="10" points="522.526,675.676 
			570.007,593.451 522.526,511.227 427.582,511.227 380.118,593.451 427.582,675.676 		"/>
		<linearGradient id="SVGID_8_" gradientUnits="userSpaceOnUse" x1="617.4922" y1="757.9513" x2="617.4922" y2="593.5023">
			<stop  offset="0" style="stop-color:#EBEFF0"/>
			<stop  offset="1" style="stop-color:#DCE2E5"/>
		</linearGradient>
		<polygon fill="url(#SVGID_8_)" stroke="#FFFFFF" stroke-width="1.8219" stroke-miterlimit="10" points="664.956,757.951 
			712.437,675.727 664.956,593.502 570.012,593.502 522.548,675.727 570.012,757.951 		"/>
	</g>
	<g>
		<linearGradient id="SVGID_9_" gradientUnits="userSpaceOnUse" x1="190.5101" y1="675.6759" x2="190.5101" y2="511.2271">
			<stop  offset="0" style="stop-color:#EBEFF0"/>
			<stop  offset="1" style="stop-color:#D6DFE1"/>
		</linearGradient>
		<polygon fill="url(#SVGID_9_)" stroke="#FFFFFF" stroke-width="1.8219" stroke-miterlimit="10" points="237.974,675.676 
			285.455,593.451 237.974,511.227 143.03,511.227 95.566,593.451 143.03,675.676 		"/>
		<linearGradient id="SVGID_10_" gradientUnits="userSpaceOnUse" x1="332.9401" y1="757.9513" x2="332.9401" y2="593.5023">
			<stop  offset="0" style="stop-color:#EBEFF0"/>
			<stop  offset="1" style="stop-color:#DCE2E5"/>
		</linearGradient>
		<polygon fill="url(#SVGID_10_)" stroke="#FFFFFF" stroke-width="1.8219" stroke-miterlimit="10" points="380.404,757.951 
			427.885,675.727 380.404,593.502 285.46,593.502 237.996,675.727 285.46,757.951 		"/>
	</g>
	<linearGradient id="SVGID_11_" gradientUnits="userSpaceOnUse" x1="1044.1663" y1="511.5654" x2="1044.1663" y2="347.1166">
		<stop  offset="0" style="stop-color:#EBEFF0"/>
		<stop  offset="1" style="stop-color:#D6DFE1"/>
	</linearGradient>
	<polygon fill="url(#SVGID_11_)" stroke="#FFFFFF" stroke-width="1.8219" stroke-miterlimit="10" points="1091.63,511.565 
		1139.111,429.341 1091.63,347.117 996.686,347.117 949.222,429.341 996.686,511.565 	"/>
	<linearGradient id="SVGID_12_" gradientUnits="userSpaceOnUse" x1="1186.5962" y1="593.8408" x2="1186.5962" y2="429.3919">
		<stop  offset="0" style="stop-color:#EBEFF0"/>
		<stop  offset="1" style="stop-color:#DCE2E5"/>
	</linearGradient>
	<polygon fill="url(#SVGID_12_)" stroke="#FFFFFF" stroke-width="1.8219" stroke-miterlimit="10" points="1234.06,593.841 
		1281.541,511.616 1234.06,429.392 1139.116,429.392 1091.652,511.616 1139.116,593.841 	"/>
	<g>
		<linearGradient id="SVGID_13_" gradientUnits="userSpaceOnUse" x1="759.6142" y1="511.5654" x2="759.6142" y2="347.1166">
			<stop  offset="0" style="stop-color:#EBEFF0"/>
			<stop  offset="1" style="stop-color:#D6DFE1"/>
		</linearGradient>
		<polygon fill="url(#SVGID_13_)" stroke="#FFFFFF" stroke-width="1.8219" stroke-miterlimit="10" points="807.078,511.565 
			854.559,429.341 807.078,347.117 712.134,347.117 664.67,429.341 712.134,511.565 		"/>
		<linearGradient id="SVGID_14_" gradientUnits="userSpaceOnUse" x1="902.0442" y1="593.8408" x2="902.0442" y2="429.3919">
			<stop  offset="0" style="stop-color:#EBEFF0"/>
			<stop  offset="1" style="stop-color:#DCE2E5"/>
		</linearGradient>
		<polygon fill="url(#SVGID_14_)" stroke="#FFFFFF" stroke-width="1.8219" stroke-miterlimit="10" points="949.508,593.841 
			996.989,511.616 949.508,429.392 854.564,429.392 807.1,511.616 854.564,593.841 		"/>
	</g>
	<g>
		<linearGradient id="SVGID_15_" gradientUnits="userSpaceOnUse" x1="475.0622" y1="511.5654" x2="475.0622" y2="347.1166">
			<stop  offset="0" style="stop-color:#EBEFF0"/>
			<stop  offset="1" style="stop-color:#D6DFE1"/>
		</linearGradient>
		<polygon fill="url(#SVGID_15_)" stroke="#FFFFFF" stroke-width="1.8219" stroke-miterlimit="10" points="522.526,511.565 
			570.007,429.341 522.526,347.117 427.582,347.117 380.118,429.341 427.582,511.565 		"/>
		<linearGradient id="SVGID_16_" gradientUnits="userSpaceOnUse" x1="617.4922" y1="593.8408" x2="617.4922" y2="429.3919">
			<stop  offset="0" style="stop-color:#EBEFF0"/>
			<stop  offset="1" style="stop-color:#DCE2E5"/>
		</linearGradient>
		<polygon fill="url(#SVGID_16_)" stroke="#FFFFFF" stroke-width="1.8219" stroke-miterlimit="10" points="664.956,593.841 
			712.437,511.616 664.956,429.392 570.012,429.392 522.548,511.616 570.012,593.841 		"/>
	</g>
	<g>
		<linearGradient id="SVGID_17_" gradientUnits="userSpaceOnUse" x1="190.5101" y1="511.5654" x2="190.5101" y2="347.1166">
			<stop  offset="0" style="stop-color:#EBEFF0"/>
			<stop  offset="1" style="stop-color:#D6DFE1"/>
		</linearGradient>
		<polygon fill="url(#SVGID_17_)" stroke="#FFFFFF" stroke-width="1.8219" stroke-miterlimit="10" points="237.974,511.565 
			285.455,429.341 237.974,347.117 143.03,347.117 95.566,429.341 143.03,511.565 		"/>
		<linearGradient id="SVGID_18_" gradientUnits="userSpaceOnUse" x1="332.9401" y1="593.8408" x2="332.9401" y2="429.3919">
			<stop  offset="0" style="stop-color:#EBEFF0"/>
			<stop  offset="1" style="stop-color:#DCE2E5"/>
		</linearGradient>
		<polygon fill="url(#SVGID_18_)" stroke="#FFFFFF" stroke-width="1.8219" stroke-miterlimit="10" points="380.404,593.841 
			427.885,511.616 380.404,429.392 285.46,429.392 237.996,511.616 285.46,593.841 		"/>
	</g>
	<linearGradient id="SVGID_19_" gradientUnits="userSpaceOnUse" x1="1044.1663" y1="347.455" x2="1044.1663" y2="183.0061">
		<stop  offset="0" style="stop-color:#EBEFF0"/>
		<stop  offset="1" style="stop-color:#D6DFE1"/>
	</linearGradient>
	<polygon fill="url(#SVGID_19_)" stroke="#FFFFFF" stroke-width="1.8219" stroke-miterlimit="10" points="1091.63,347.455 
		1139.111,265.231 1091.63,183.006 996.686,183.006 949.222,265.231 996.686,347.455 	"/>
	<linearGradient id="SVGID_20_" gradientUnits="userSpaceOnUse" x1="1186.5962" y1="429.7304" x2="1186.5962" y2="265.2814">
		<stop  offset="0" style="stop-color:#EBEFF0"/>
		<stop  offset="1" style="stop-color:#DCE2E5"/>
	</linearGradient>
	<polygon fill="url(#SVGID_20_)" stroke="#FFFFFF" stroke-width="1.8219" stroke-miterlimit="10" points="1234.06,429.73 
		1281.541,347.506 1234.06,265.281 1139.116,265.281 1091.652,347.506 1139.116,429.73 	"/>
	<g>
		<linearGradient id="SVGID_21_" gradientUnits="userSpaceOnUse" x1="759.6142" y1="347.455" x2="759.6142" y2="183.0061">
			<stop  offset="0" style="stop-color:#EBEFF0"/>
			<stop  offset="1" style="stop-color:#D6DFE1"/>
		</linearGradient>
		<polygon fill="url(#SVGID_21_)" stroke="#FFFFFF" stroke-width="1.8219" stroke-miterlimit="10" points="807.078,347.455 
			854.559,265.231 807.078,183.006 712.134,183.006 664.67,265.231 712.134,347.455 		"/>
		<linearGradient id="SVGID_22_" gradientUnits="userSpaceOnUse" x1="902.0442" y1="429.7304" x2="902.0442" y2="265.2814">
			<stop  offset="0" style="stop-color:#EBEFF0"/>
			<stop  offset="1" style="stop-color:#DCE2E5"/>
		</linearGradient>
		<polygon fill="url(#SVGID_22_)" stroke="#FFFFFF" stroke-width="1.8219" stroke-miterlimit="10" points="949.508,429.73 
			996.989,347.506 949.508,265.281 854.564,265.281 807.1,347.506 854.564,429.73 		"/>
	</g>
	<g>
		<linearGradient id="SVGID_23_" gradientUnits="userSpaceOnUse" x1="475.0622" y1="347.455" x2="475.0622" y2="183.0061">
			<stop  offset="0" style="stop-color:#EBEFF0"/>
			<stop  offset="1" style="stop-color:#D6DFE1"/>
		</linearGradient>
		<polygon fill="url(#SVGID_23_)" stroke="#FFFFFF" stroke-width="1.8219" stroke-miterlimit="10" points="522.526,347.455 
			570.007,265.231 522.526,183.006 427.582,183.006 380.118,265.231 427.582,347.455 		"/>
		<linearGradient id="SVGID_24_" gradientUnits="userSpaceOnUse" x1="617.4922" y1="429.7304" x2="617.4922" y2="265.2814">
			<stop  offset="0" style="stop-color:#EBEFF0"/>
			<stop  offset="1" style="stop-color:#DCE2E5"/>
		</linearGradient>
		<polygon fill="url(#SVGID_24_)" stroke="#FFFFFF" stroke-width="1.8219" stroke-miterlimit="10" points="664.956,429.73 
			712.437,347.506 664.956,265.281 570.012,265.281 522.548,347.506 570.012,429.73 		"/>
	</g>
	<g>
		<linearGradient id="SVGID_25_" gradientUnits="userSpaceOnUse" x1="190.5101" y1="347.455" x2="190.5101" y2="183.0061">
			<stop  offset="0" style="stop-color:#EBEFF0"/>
			<stop  offset="1" style="stop-color:#D6DFE1"/>
		</linearGradient>
		<polygon fill="url(#SVGID_25_)" stroke="#FFFFFF" stroke-width="1.8219" stroke-miterlimit="10" points="237.974,347.455 
			285.455,265.231 237.974,183.006 143.03,183.006 95.566,265.231 143.03,347.455 		"/>
		<linearGradient id="SVGID_26_" gradientUnits="userSpaceOnUse" x1="332.9401" y1="429.7304" x2="332.9401" y2="265.2814">
			<stop  offset="0" style="stop-color:#EBEFF0"/>
			<stop  offset="1" style="stop-color:#DCE2E5"/>
		</linearGradient>
		<polygon fill="url(#SVGID_26_)" stroke="#FFFFFF" stroke-width="1.8219" stroke-miterlimit="10" points="380.404,429.73 
			427.885,347.506 380.404,265.281 285.46,265.281 237.996,347.506 285.46,429.73 		"/>
	</g>
	<linearGradient id="SVGID_27_" gradientUnits="userSpaceOnUse" x1="48.3881" y1="757.9513" x2="48.3881" y2="593.5023">
		<stop  offset="0" style="stop-color:#EBEFF0"/>
		<stop  offset="1" style="stop-color:#DCE2E5"/>
	</linearGradient>
	<polygon fill="url(#SVGID_27_)" stroke="#FFFFFF" stroke-width="1.8219" stroke-miterlimit="10" points="95.852,757.951 
		143.333,675.727 95.852,593.502 0.908,593.502 -46.556,675.727 0.908,757.951 	"/>
	<linearGradient id="SVGID_28_" gradientUnits="userSpaceOnUse" x1="48.3881" y1="593.8408" x2="48.3881" y2="429.3919">
		<stop  offset="0" style="stop-color:#EBEFF0"/>
		<stop  offset="1" style="stop-color:#DCE2E5"/>
	</linearGradient>
	<polygon fill="url(#SVGID_28_)" stroke="#FFFFFF" stroke-width="1.8219" stroke-miterlimit="10" points="95.852,593.841 
		143.333,511.616 95.852,429.392 0.908,429.392 -46.556,511.616 0.908,593.841 	"/>
	<linearGradient id="SVGID_29_" gradientUnits="userSpaceOnUse" x1="48.3881" y1="429.7304" x2="48.3881" y2="265.2814">
		<stop  offset="0" style="stop-color:#EBEFF0"/>
		<stop  offset="1" style="stop-color:#DCE2E5"/>
	</linearGradient>
	<polygon fill="url(#SVGID_29_)" stroke="#FFFFFF" stroke-width="1.8219" stroke-miterlimit="10" points="95.852,429.73 
		143.333,347.506 95.852,265.281 0.908,265.281 -46.556,347.506 0.908,429.73 	"/>
	<linearGradient id="SVGID_30_" gradientUnits="userSpaceOnUse" x1="48.3881" y1="265.6199" x2="48.3881" y2="101.171">
		<stop  offset="0" style="stop-color:#EBEFF0"/>
		<stop  offset="1" style="stop-color:#DCE2E5"/>
	</linearGradient>
	<polygon fill="url(#SVGID_30_)" stroke="#FFFFFF" stroke-width="1.8219" stroke-miterlimit="10" points="95.852,265.62 
		143.333,183.395 95.852,101.171 0.908,101.171 -46.556,183.395 0.908,265.62 	"/>
	<g>
		<linearGradient id="SVGID_31_" gradientUnits="userSpaceOnUse" x1="902.0442" y1="265.6199" x2="902.0442" y2="101.171">
			<stop  offset="0" style="stop-color:#EBEFF0"/>
			<stop  offset="1" style="stop-color:#DCE2E5"/>
		</linearGradient>
		<polygon fill="url(#SVGID_31_)" stroke="#FFFFFF" stroke-width="1.8219" stroke-miterlimit="10" points="949.508,265.62 
			996.989,183.395 949.508,101.171 854.564,101.171 807.1,183.395 854.564,265.62 		"/>
	</g>
	<g>
		<linearGradient id="SVGID_32_" gradientUnits="userSpaceOnUse" x1="617.4922" y1="265.6199" x2="617.4922" y2="101.171">
			<stop  offset="0" style="stop-color:#EBEFF0"/>
			<stop  offset="1" style="stop-color:#DCE2E5"/>
		</linearGradient>
		<polygon fill="url(#SVGID_32_)" stroke="#FFFFFF" stroke-width="1.8219" stroke-miterlimit="10" points="664.956,265.62 
			712.437,183.395 664.956,101.171 570.012,101.171 522.548,183.395 570.012,265.62 		"/>
	</g>
	<g>
		<linearGradient id="SVGID_33_" gradientUnits="userSpaceOnUse" x1="190.5101" y1="183.3445" x2="190.5101" y2="18.8957">
			<stop  offset="0" style="stop-color:#EBEFF0"/>
			<stop  offset="1" style="stop-color:#D6DFE1"/>
		</linearGradient>
		<polygon fill="url(#SVGID_33_)" stroke="#FFFFFF" stroke-width="1.8219" stroke-miterlimit="10" points="237.974,183.345 
			285.455,101.12 237.974,18.896 143.03,18.896 95.566,101.12 143.03,183.345 		"/>
		<linearGradient id="SVGID_34_" gradientUnits="userSpaceOnUse" x1="332.9401" y1="265.6199" x2="332.9401" y2="101.171">
			<stop  offset="0" style="stop-color:#EBEFF0"/>
			<stop  offset="1" style="stop-color:#DCE2E5"/>
		</linearGradient>
		<polygon fill="url(#SVGID_34_)" stroke="#FFFFFF" stroke-width="1.8219" stroke-miterlimit="10" points="380.404,265.62 
			427.885,183.395 380.404,101.171 285.46,101.171 237.996,183.395 285.46,265.62 		"/>
	</g>
</g>
</svg>
